<svg width="212" height="75" viewBox="0 0 212 75" fill="none" xmlns="http://www.w3.org/2000/svg">
<path d="M93.5123 51.0615C93.2328 51.0615 93.0041 50.9726 92.8263 50.7947C92.6484 50.5914 92.5595 50.3628 92.5595 50.1087V46.3734C92.5595 46.0177 92.623 45.7255 92.75 45.4968C92.9025 45.2681 93.0295 45.1029 93.1312 45.0013L105.404 30.0603H93.8554C93.6013 30.0603 93.3726 29.9714 93.1693 29.7935C92.9914 29.6156 92.9025 29.3869 92.9025 29.1074V25.3341C92.9025 25.0546 92.9914 24.8259 93.1693 24.648C93.3726 24.4701 93.6013 24.3812 93.8554 24.3812H113.065C113.345 24.3812 113.573 24.4701 113.751 24.648C113.955 24.8259 114.056 25.0546 114.056 25.3341V29.0312C114.056 29.3107 114.005 29.5521 113.904 29.7554C113.827 29.9587 113.713 30.1492 113.561 30.3271L101.631 45.3062H113.523C113.802 45.3062 114.031 45.4078 114.209 45.6111C114.412 45.789 114.514 46.0177 114.514 46.2972V50.1087C114.514 50.3882 114.412 50.6169 114.209 50.7947C114.031 50.9726 113.802 51.0615 113.523 51.0615H93.5123ZM129.246 51.4427C126.908 51.4427 124.876 51.0615 123.148 50.2992C121.42 49.5369 120.073 48.3935 119.108 46.8689C118.142 45.3189 117.608 43.3878 117.507 41.0755C117.481 39.9828 117.469 38.8902 117.469 37.7976C117.469 36.705 117.481 35.5996 117.507 34.4816C117.608 32.1947 118.142 30.2763 119.108 28.7263C120.099 27.1509 121.458 25.9693 123.186 25.1816C124.914 24.3939 126.934 24 129.246 24C131.533 24 133.54 24.3939 135.268 25.1816C137.022 25.9693 138.394 27.1509 139.385 28.7263C140.376 30.2763 140.909 32.1947 140.985 34.4816C141.036 35.5996 141.062 36.705 141.062 37.7976C141.062 38.8902 141.036 39.9828 140.985 41.0755C140.884 43.3878 140.35 45.3189 139.385 46.8689C138.419 48.3935 137.072 49.5369 135.344 50.2992C133.617 51.0615 131.584 51.4427 129.246 51.4427ZM129.246 45.9541C130.593 45.9541 131.685 45.5476 132.524 44.7345C133.388 43.9214 133.845 42.6255 133.896 40.8468C133.947 39.7287 133.972 38.6742 133.972 37.6832C133.972 36.6923 133.947 35.6632 133.896 34.5959C133.845 33.4017 133.617 32.4361 133.21 31.6992C132.829 30.9369 132.295 30.3779 131.609 30.0222C130.923 29.6664 130.135 29.4886 129.246 29.4886C128.382 29.4886 127.607 29.6664 126.921 30.0222C126.235 30.3779 125.689 30.9369 125.282 31.6992C124.876 32.4361 124.647 33.4017 124.596 34.5959C124.571 35.6632 124.558 36.6923 124.558 37.6832C124.558 38.6742 124.571 39.7287 124.596 40.8468C124.672 42.6255 125.13 43.9214 125.968 44.7345C126.807 45.5476 127.899 45.9541 129.246 45.9541ZM146.433 51.0615C146.153 51.0615 145.924 50.9726 145.747 50.7947C145.569 50.6169 145.48 50.3882 145.48 50.1087V25.3341C145.48 25.0546 145.569 24.8259 145.747 24.648C145.924 24.4701 146.153 24.3812 146.433 24.3812H156.8C160.078 24.3812 162.657 25.1435 164.537 26.6681C166.443 28.1673 167.396 30.3017 167.396 33.0714C167.396 34.8755 166.951 36.4 166.062 37.6451C165.198 38.8902 164.054 39.8304 162.631 40.4656L167.891 49.8419C167.967 49.9943 168.006 50.1341 168.006 50.2611C168.006 50.4644 167.917 50.655 167.739 50.8328C167.586 50.9853 167.396 51.0615 167.167 51.0615H162.136C161.653 51.0615 161.297 50.9472 161.069 50.7185C160.84 50.4644 160.675 50.2357 160.573 50.0324L156.228 41.6472H152.302V50.1087C152.302 50.3882 152.213 50.6169 152.035 50.7947C151.858 50.9726 151.629 51.0615 151.349 51.0615H146.433ZM152.302 36.273H156.724C157.918 36.273 158.807 35.9808 159.392 35.3964C160.001 34.8119 160.306 34.0115 160.306 32.9951C160.306 32.0041 160.014 31.2037 159.43 30.5939C158.871 29.9841 157.969 29.6791 156.724 29.6791H152.302V36.273ZM172.785 51.0615C172.506 51.0615 172.277 50.9726 172.099 50.7947C171.921 50.6169 171.832 50.3882 171.832 50.1087V25.3341C171.832 25.0546 171.921 24.8259 172.099 24.648C172.277 24.4701 172.506 24.3812 172.785 24.3812H183.457C185.567 24.3812 187.396 24.7115 188.946 25.3722C190.521 26.0074 191.741 26.973 192.605 28.2689C193.494 29.5648 193.939 31.2037 193.939 33.1857C193.939 35.1423 193.494 36.7558 192.605 38.0263C191.741 39.2968 190.521 40.2369 188.946 40.8468C187.396 41.4566 185.567 41.7615 183.457 41.7615H178.922V50.1087C178.922 50.3882 178.82 50.6169 178.617 50.7947C178.439 50.9726 178.21 51.0615 177.931 51.0615H172.785ZM178.807 36.5017H183.267C184.36 36.5017 185.223 36.2222 185.859 35.6632C186.519 35.1041 186.85 34.2529 186.85 33.1095C186.85 32.1439 186.57 31.3308 186.011 30.6701C185.452 30.0095 184.537 29.6791 183.267 29.6791H178.807V36.5017Z" fill="white"/>
<rect x="38.7565" y="67.2565" width="59.513" height="15.487" rx="7.74351" transform="rotate(-90 38.7565 67.2565)" fill="white" fill-opacity="0.6"/>
<rect x="12.1284" y="38.8462" width="48.7771" height="15.4848" rx="7.7424" transform="rotate(-45 12.1284 38.8462)" fill="white"/>
<rect x="35.5305" y="59.9126" width="48.7771" height="15.4848" rx="7.7424" transform="rotate(-45 35.5305 59.9126)" fill="white"/>
</svg>
