<svg width="212" height="92" viewBox="0 0 212 92" fill="none" xmlns="http://www.w3.org/2000/svg">
<path d="M93.5123 60.0615C93.2328 60.0615 93.0041 59.9726 92.8263 59.7947C92.6484 59.5914 92.5595 59.3628 92.5595 59.1087V55.3734C92.5595 55.0177 92.623 54.7255 92.75 54.4968C92.9025 54.2681 93.0295 54.1029 93.1312 54.0013L105.404 39.0603H93.8554C93.6013 39.0603 93.3726 38.9714 93.1693 38.7935C92.9914 38.6156 92.9025 38.3869 92.9025 38.1074V34.3341C92.9025 34.0546 92.9914 33.8259 93.1693 33.648C93.3726 33.4701 93.6013 33.3812 93.8554 33.3812H113.065C113.345 33.3812 113.573 33.4701 113.751 33.648C113.955 33.8259 114.056 34.0546 114.056 34.3341V38.0312C114.056 38.3107 114.005 38.5521 113.904 38.7554C113.827 38.9587 113.713 39.1492 113.561 39.3271L101.631 54.3062H113.523C113.802 54.3062 114.031 54.4078 114.209 54.6111C114.412 54.789 114.514 55.0177 114.514 55.2972V59.1087C114.514 59.3882 114.412 59.6169 114.209 59.7947C114.031 59.9726 113.802 60.0615 113.523 60.0615H93.5123ZM129.246 60.4427C126.908 60.4427 124.876 60.0615 123.148 59.2992C121.42 58.5369 120.073 57.3935 119.108 55.8689C118.142 54.3189 117.608 52.3878 117.507 50.0755C117.481 48.9828 117.469 47.8902 117.469 46.7976C117.469 45.705 117.481 44.5996 117.507 43.4816C117.608 41.1947 118.142 39.2763 119.108 37.7263C120.099 36.1509 121.458 34.9693 123.186 34.1816C124.914 33.3939 126.934 33 129.246 33C131.533 33 133.54 33.3939 135.268 34.1816C137.022 34.9693 138.394 36.1509 139.385 37.7263C140.376 39.2763 140.909 41.1947 140.985 43.4816C141.036 44.5996 141.062 45.705 141.062 46.7976C141.062 47.8902 141.036 48.9828 140.985 50.0755C140.884 52.3878 140.35 54.3189 139.385 55.8689C138.419 57.3935 137.072 58.5369 135.344 59.2992C133.617 60.0615 131.584 60.4427 129.246 60.4427ZM129.246 54.9541C130.593 54.9541 131.685 54.5476 132.524 53.7345C133.388 52.9214 133.845 51.6255 133.896 49.8468C133.947 48.7287 133.972 47.6742 133.972 46.6832C133.972 45.6923 133.947 44.6632 133.896 43.5959C133.845 42.4017 133.617 41.4361 133.21 40.6992C132.829 39.9369 132.295 39.3779 131.609 39.0222C130.923 38.6664 130.135 38.4886 129.246 38.4886C128.382 38.4886 127.607 38.6664 126.921 39.0222C126.235 39.3779 125.689 39.9369 125.282 40.6992C124.876 41.4361 124.647 42.4017 124.596 43.5959C124.571 44.6632 124.558 45.6923 124.558 46.6832C124.558 47.6742 124.571 48.7287 124.596 49.8468C124.672 51.6255 125.13 52.9214 125.968 53.7345C126.807 54.5476 127.899 54.9541 129.246 54.9541ZM146.433 60.0615C146.153 60.0615 145.924 59.9726 145.747 59.7947C145.569 59.6169 145.48 59.3882 145.48 59.1087V34.3341C145.48 34.0546 145.569 33.8259 145.747 33.648C145.924 33.4701 146.153 33.3812 146.433 33.3812H156.8C160.078 33.3812 162.657 34.1435 164.537 35.6681C166.443 37.1673 167.396 39.3017 167.396 42.0714C167.396 43.8755 166.951 45.4 166.062 46.6451C165.198 47.8902 164.054 48.8304 162.631 49.4656L167.891 58.8419C167.967 58.9943 168.006 59.1341 168.006 59.2611C168.006 59.4644 167.917 59.655 167.739 59.8328C167.586 59.9853 167.396 60.0615 167.167 60.0615H162.136C161.653 60.0615 161.297 59.9472 161.069 59.7185C160.84 59.4644 160.675 59.2357 160.573 59.0324L156.228 50.6472H152.302V59.1087C152.302 59.3882 152.213 59.6169 152.035 59.7947C151.858 59.9726 151.629 60.0615 151.349 60.0615H146.433ZM152.302 45.273H156.724C157.918 45.273 158.807 44.9808 159.392 44.3964C160.001 43.8119 160.306 43.0115 160.306 41.9951C160.306 41.0041 160.014 40.2037 159.43 39.5939C158.871 38.9841 157.969 38.6791 156.724 38.6791H152.302V45.273ZM172.785 60.0615C172.506 60.0615 172.277 59.9726 172.099 59.7947C171.921 59.6169 171.832 59.3882 171.832 59.1087V34.3341C171.832 34.0546 171.921 33.8259 172.099 33.648C172.277 33.4701 172.506 33.3812 172.785 33.3812H183.457C185.567 33.3812 187.396 33.7115 188.946 34.3722C190.521 35.0074 191.741 35.973 192.605 37.2689C193.494 38.5648 193.939 40.2037 193.939 42.1857C193.939 44.1423 193.494 45.7558 192.605 47.0263C191.741 48.2968 190.521 49.2369 188.946 49.8468C187.396 50.4566 185.567 50.7615 183.457 50.7615H178.922V59.1087C178.922 59.3882 178.82 59.6169 178.617 59.7947C178.439 59.9726 178.21 60.0615 177.931 60.0615H172.785ZM178.807 45.5017H183.267C184.36 45.5017 185.223 45.2222 185.859 44.6632C186.519 44.1041 186.85 43.2529 186.85 42.1095C186.85 41.1439 186.57 40.3308 186.011 39.6701C185.452 39.0095 184.537 38.6791 183.267 38.6791H178.807V45.5017Z" fill="#303030"/>
<rect x="38.7565" y="76.2565" width="59.513" height="15.487" rx="7.74351" transform="rotate(-90 38.7565 76.2565)" fill="black" fill-opacity="0.6"/>
<rect x="12.1284" y="47.8462" width="48.7771" height="15.4848" rx="7.7424" transform="rotate(-45 12.1284 47.8462)" fill="black"/>
<rect x="35.5305" y="68.9126" width="48.7771" height="15.4848" rx="7.7424" transform="rotate(-45 35.5305 68.9126)" fill="black"/>
</svg>
